<?xml version="1.0" standalone="no"?><!DOCTYPE svg PUBLIC "-//W3C//DTD SVG 1.1//EN" "http://www.w3.org/Graphics/SVG/1.1/DTD/svg11.dtd"><svg t="1745114266125" class="icon" viewBox="0 0 1024 1024" version="1.1" xmlns="http://www.w3.org/2000/svg" p-id="18865" width="48" height="48" xmlns:xlink="http://www.w3.org/1999/xlink"><path d="M512 512m-426.666667 0a426.666667 426.666667 0 1 0 853.333334 0 426.666667 426.666667 0 1 0-853.333334 0Z" fill="#FFFFFF" p-id="18866"></path><path d="M512 0C229.226667 0 0 229.226667 0 512s229.226667 512 512 512 512-229.226667 512-512C1023.68 229.354667 794.645333 0.32 512 0z m228.266667 527.36L446.933333 746.133333a29.44 29.44 0 0 1-17.6 5.845334c-16.213333 0-29.333333-13.056-29.333333-29.184V285.184c0-11.050667 6.272-21.162667 16.213333-26.112a29.461333 29.461333 0 0 1 30.72 2.773333L740.266667 480.64a29.12 29.12 0 0 1 0 46.677333z" fill="#0076CF" p-id="18867"></path></svg>