<?xml version="1.0" standalone="no"?><!DOCTYPE svg PUBLIC "-//W3C//DTD SVG 1.1//EN" "http://www.w3.org/Graphics/SVG/1.1/DTD/svg11.dtd"><svg t="1745114522405" class="icon" viewBox="0 0 1024 1024" version="1.1" xmlns="http://www.w3.org/2000/svg" p-id="22852" xmlns:xlink="http://www.w3.org/1999/xlink" width="48" height="48"><path d="M503.749329 77.006267c253.020591 0 458.370636 205.350045 458.370635 458.370635s-205.350045 458.370636-458.370635 458.370636-458.370636-205.350045-458.370636-458.370636 205.350045-458.370636 458.370636-458.370635z" fill="#458EE7" p-id="22853"></path><path d="M404.741271 388.698299H373.572068c-13.751119 0-25.668756 11.917637-25.668756 25.668756v242.019695c0 13.751119 11.917637 25.668756 25.668756 25.668756h32.085945c13.751119 0 25.668756-11.917637 25.668755-25.668756V414.367055c-0.916741-13.751119-11.917637-25.668756-26.585497-25.668756z m229.185318 0h-32.085944c-13.751119 0-25.668756 11.917637-25.668756 25.668756v242.019695c0 13.751119 11.917637 25.668756 25.668756 25.668756h32.085944c13.751119 0 25.668756-11.917637 25.668756-25.668756V414.367055c0-13.751119-11.917637-25.668756-25.668756-25.668756z" fill="#FFFFFF" p-id="22854"></path></svg>